<?xml version="1.0" encoding="UTF-8"?>
<svg id="Ebene_1" xmlns="http://www.w3.org/2000/svg" version="1.1" viewBox="0 0 1440 1440">
  <!-- Generator: Adobe Illustrator 29.6.1, SVG Export Plug-In . SVG Version: 2.1.1 Build 9)  -->
  <defs>
    <style>
      .st0 {
        fill: #fff;
      }
    </style>
  </defs>
  <path d="M967,847.5c3.22,23.85,25.87,34.06,47.46,35.54,4.15.29,31.22.58,31.52-3.53-11.99-15.29-22.07-33.96-21.02-54.05.43-8.19,2.89-19.13,4.72-27.28,5.42-24.01,14.37-48.02,19.86-72.14l2.44-1.04c7.66,14.8,27.82,14.18,42.03,10.5,45.01-11.64,83.66-77.94,78.98-122.99-.58-5.59-.78-7.88-6.98-8.01,7.14-4.98,16.72,1.2,17.93,9.06,2.99,19.34-6.99,53.82-15.08,71.79-18.39,40.89-62.9,81.37-110.85,67.64l-15.01,55c21.18-10.55,45.97,9.5,35.54,32.05-6.11,13.21-21.73,15.58-34.54,11.96,2.86,12.21,25.71,34.07,5.29,42.79-22.37,9.54-65.76,4.32-82.79-14.77-34.83,55.64-89.39,98.45-150.98,121-90.48,33.12-192,18.53-270.24-36.8-17.04-12.05-32.3-26.3-46.79-41.21-.78-.16-5.68,13.13-6.2,14.78-3.08,9.71-4.88,30.16-8.86,37.14-1.39,2.42-7.67,7.88-10.39,8.6-16.89,4.48-24.14-17.34-31.81-28.25-15.68-22.3-43.55-44.55-71.01-48.99-12.28-1.98-29.11,1.95-31.02-15.06-1.46-13.01,20.6-27.74,30.09-34.45,19.25-13.63,40.24-24.67,61.76-34.29,1.71-1.55-.26-7.64-2.76-8.26l-17.13-4.1c-36.79,64.7-126.23,57.67-160.67-6.11-42.49-78.7,7.32-222.37,90.16-257.88,41.43-17.76,87.09-4,105.84,37.88,1.06,2.38,1.45,5.43,2.42,7.58.53,1.17-.48,1.81,2.08,1.41,3.53-10.25,9.84-20.66,15.59-29.92,83.81-134.79,259.88-180.17,398.09-99.26,23.51,13.76,43.1,32.37,64.3,48.69,1.11.86,2.11,1.9,3.54,2.24,10.65-8.55,3.38-7.01-2.05-12.72-23.07-24.25-8.3-71.69,26-74.07,32.41-2.25,60.96,20.07,56.46,54.45-1.08,8.27-7.02,13.96-9.97,21.04.14,1.48,6.06,8.67,7.53,9.57,9.28,5.68,13.21-4,20.84-7.21,12-5.05,22.35-2.47,32.6,4.78,5.03,3.55,11.32,8.76,11.09,15.42,8.5-2.2,17.55-5.91,26.46-6.07,25.18-.44,53.07,15.54,66.76,36.33,4.8,7.28,12.65,21.66.34,25.7-2.85-4.4-3.46-9.16-6.14-13.89-.85-1.5-7.73-11.67-9.42-10.07,3.14,6.23,8.32,18.58,7.01,25.49-.72,3.8-12.92,7.96-13.64,3.03-.53-3.64,4.89-15.52,4.01-21.33-4.19-27.81-40.96-36.99-64.06-28.37-2.98,1.11-12.69,6.62-14.35,8.92-2.42,3.36-3.5,14.02-5.49,19.24-1.11,2.89-3.11,6.6-4.66,9.34-1.17,2.07-6.82,7.43-5.39,9.68,10.11,7.31,20.21,16.46,33.19,17.87,10.86,1.18,24.57-1.03,35.23-3.52,6.45-1.51,14.14-7.86,20.13-1.85.01.88-8.45,6.21-9.96,7.02-22.7,12.14-54.83,10.06-75.5-5.54-1.54-1.16-5.06-5.7-6.16-5.88s-2.54,1.88-4.8,1.96c-1.44.05-8.93-1.29-9.55-2.58l11.19-12.79,8.81-25.3c.64-3.42-3.55-6.07-2.6-9.43s7.91-8.46,8.4-11.66c1.33-8.62-10.49-17.71-18.26-18.35-16.68-1.36-22.35,12.86-23.56,27.05-2.09-1.42-5.87-2.23-7.46-4.05-2.29-2.62-.33-4.75-.52-4.94-.87-.87-22.72-3.93-24.01-3l1.96,3.45-2.96,10.54v-15.5c0-.52-2.11-8.57-2.5-9.5-3.24-7.65-19.65-8.76-26.89-7.89-8.27,1-14.94,6.11-18.49,13.51-8.09,16.87-13.17,49.03-18.63,68.37-10.52,37.29-34.81,97.86-20.26,135.26,8.91,22.9,35.89,19.64,52.24,6.72,2.86-2.26,10.02-11.13,12.04-11.97,1.62-.67,3.22,4.85,4.49,6.49,13.89,17.92,40.01,7.69,49.01-9.49,2.05,0,.79,3.96.53,5.04-1.01,4.19-10.73,33.39-12.53,34.46-37.94,1.98-77.21,12.46-100.84,44.16-10.49,14.07-25.87,44.46-27.15,61.84-.31,4.26-1.18,7.34,3.93,7.47,13.97-30.43,47.32-55.69,82.05-49.98.77,7.99-1.05,17.76,0,25.5h0ZM957.76,437.26c-29.57,4.06-37.68,42.83-16.24,60.72,10.85,9.05,9.96,4.38,21.08,3.13,2.24-.25,4.69-.24,6.94-.15,4.16.17,14.54,3.49,16.73,2.9.69-.19,10.66-8.14,11.2-8.87,4.44-5.99,4.56-20.06,3.26-27.22-3.76-20.8-22.04-33.37-42.98-30.5h0ZM884.99,499.98c.37-1.53-.23-1.6-1.06-2.42-4.65-4.63-13.07-10.43-18.62-14.38-63.3-45.13-142.63-55.69-217.53-35.9-84.04,22.2-159.04,89.6-187.77,171.72,9.22-4.61,19.66-6.27,29.89-6.1,26.05-74.69,90.8-129.69,169.74-140.76,62.37-8.74,125.92,12.51,165.34,62.38,7.32,9.26,12.66,19.9,19.52,29.46,8.72-23.46,16.8-51.51,40.49-64h0ZM784.99,511.01c-51.59-30.53-114.07-32.81-168.96-9.48-50.58,21.5-96.61,66.53-104.9,122.76l9.86,10.7c-.91-11.21,4.16-25.25,13.51-31.99,15.7-11.31,43.79,6.51,52.06-.94,1.64-1.48,1.99-9.52,2.95-13.05,14.23-52.04,88.93-81.63,138-84,20.77-1,34.74,2.98,54.23,6.76,1.03.2,3.5,1.03,3.25-.76ZM1007,517.99l-1.15-3.34-10.84-14.65c-2.74,6.68,1.17,12.62,3.12,18.86l8.86-.87h.01ZM883.99,599.01c-1.79-1.78,4.13-36.95,5.3-42.21,1.46-6.56,4.51-23.05,11.65-25.34,8.67-2.78,10.7,5.68,7.25,12.25-5.55,10.56-18.99,14.25-19.22,26.81l.44,1.55c34.75,9.13,50.08-41.98,24.08-61.06-17.93-13.16-34.73,2.34-42.18,18.81-10.05,22.21-13.72,48.46-18.81,72.19-1.5,2.98-15.09,4.16-18.63,5.57l-2.88,15.41,19-.99c-3.94,29.62-10.59,59.03-14.86,88.64-4.14,28.74-5.82,57.8-11.14,86.35,26.62,1.55,34.69-14.02,39.54-36.96l19.46-142.04,24.97-2.03,2.03-18.96-26,2h0ZM830,560.99c-7.38-20.65-22.52-28.07-42.23-34.26-49.26-15.46-109.96-8.66-152.68,20.86-16.53,11.43-34.15,28.73-37.09,49.4,8.11.89,16.14-1.61,24,0-3.02-13.18,13.88-13.77,22.99-17.51s18.75-7.76,26.5-13.5c9.39-6.97,18.81-18.09,29.17-23.83,9.3-5.15,45.17-4.83,56.89-4.19,4.23.23,13.16.86,16.75,2.25,10.64,4.12,3.8,16.1,1.71,23.78,13.4-2.96,25.48,2.14,34.56,11.98l1.46-.43c4.6-6.26,9.59-13.64,17.97-14.55ZM768,549.01c-2.15-2.35-32.46-2.34-37.55-2.05-4.08.23-23.54,2.14-24.97,5.03-.42.83-.4,1.59-.53,2.47-.3,2.12.08,4.74.16,6.93l3.94,2.17-3.07,14.45c-1.63-.53-.93-3.43-1.91-5.58-1.87-4.11-6.11-6.9-8.79-9.69-1.14-1.19-.71-4.54-2.78-3.72-6.42,6-12.82,12.96-20.21,17.8-11.87,7.77-25.89,11.21-38.29,17.7,3.54,7.42,13.38-1.05,13.87,6.8l-2.89,3.69c8.44,1.36,21.95,12.14,29.95,9.45,2.58-.87,12-5.53,14.95-7.04,3.36-1.72,6.28-4.56,9.6-6.4l.47,2.46-9.99,48.54c-16.81-4.01-37.02,8.45-47.5,20.98-14.43,17.25-27.03,54.87-12.92,74.95,14.86,21.15,45.37,11.72,58.94-5.92,8.2,11.11,20.45,12.56,32.71,6.7,5.02-2.4,8.96-6.47,13.45-9.59,3.76,2.86,5.49,6.31,10.02,8.69,7.82,4.12,15.96,3.69,24.37,1.72,6.12-1.43,11.38-4.91,16.95-7.54-1.39,16.79,1.31,51.39-11.98,63.51-8.52,7.77-28.25,1.42-29.02-10.51,34.66,4.36,20.77-41.01-4.93-23.44-9.41,6.43-12.96,20.86-9.54,31.41,6.75,20.8,34.07,25.84,52.45,18.51,35.21-14.04,32.29-63.55,37.19-94.81,4.95-31.63,13.81-62.76,16.83-94.67-4.99.81-34,4.36-35.52,6.98-1.64,13.11-2.66,26.29-4.64,39.36-1.26,8.35-5.08,36.25-9.29,41.71-5.05,6.56-18.04,7.68-19.49-1.61-2.79-17.87,9.82-51.78,11.82-71.06.25-2.45.15-4.92.11-7.37-10.52-1.43-21.57-.08-31.95,2.52-1.53,1.05-5.85,17.86-6.75,21.25-5.39,20.14-12.09,42.73-9.25,63.51-4.19,2.21-7.46,7-12.48,6.73-7.64-1.06-3.2-20.75-2.24-26.21,5.91-33.68,23.88-73.83,34.7-107.3,5.53-17.1,11.15-34.2,15.98-51.51h.02ZM361.99,694c54.45,11.9,79.98-57.21,72.9-100.4-8.13-49.58-67.58-51-103.94-32.15-80.44,41.71-128.26,239.15-19.95,271.04,36.53,10.75,81.94-3.02,89.72-44.27,3.63-19.24.43-51.65-24.22-54.23-35.12-3.68-26.18,48.43,2.3,38.31,8.34-2.96,8.08-8.49,13.18-14.31,2.53,28.05-16.81,44.8-44.43,37.94-34.8-8.65-33.91-66.34-27.7-93.57,6.95-30.48,32.43-71.43,59.83-87.17,8.37-4.8,26.96-11.49,35.26-4.65,8.51,7.02-1.25,19.61-5.41,26.57l-16.53-1.67c-11.96,18.1-27.67,36.55-31.01,58.55h0ZM839.78,578.2l-8.8-3.73c-5.15,3.54-15.63,15.8-21.45,15.61-7.45-.24-6.63-6.51-9.52-10.59-4.43-6.26-20.3-9.28-25.96-4.94-3.99,3.05-15.28,47.85-19.04,55.45,7.26-.11,25.48-3.73,30.57,1.93,1.8,2,1.36,5.08,3.41,6.07,2.01-8.34,13.43-11.21,21.01-12-4.49-3.59-4.69-12.99,2.44-12.02,5.16.7,2.85,6.71,4.06,10.02,2.47-3.18,1.3-7.66,2.15-11.85,1.82-8.95,6.85-10.91,14.22-14.72l-2.87-18.42,4.1.58,3.39,17.41c1.63-2.39,3.22-17.16,2.29-18.79h0ZM609.01,662c18.5,3.97,9.71-12.06,10.99-23.51.97-8.69,7.73-15.67,1.83-24.82-6.46-10.03-18.94-10.93-29.2-6.55-2.61,1.12-7.99,5.65-10.07,5.77-6.04.35-21.83-6.15-30.07-6.88-22.79-2.03-18.34,18.39-19.49,33.49-.18,2.39-2.92,6.86-1.01,8.02,8.87-1.55,16.95-1.21,25.86-.68,1.81-5.67,6.45-11.87,13.15-11.85.72-2.81-1.7-1.73-3.53-2.93-1.6-1.05-3.2-2.08-4.46-3.56,0-3.26,8.89,1.4,10.03,2.94,6.2,8.3-4.82,6.68-8.29,9.55-1,.83-3.98,5.47-3.75,6.47,1.48,1.9,4.04,1.73,5.95,3.09,4.78,3.39,8.95,12,16.05,10.03,14.96-4.14,24.36-19.6,7-28.12l1.15-2.79,4.83-5.66-1.97,8.43c.37,1.72,5.75,2.11,7.52,3.52,4.61,3.69,4.75,15.86,3.01,21.11-1.47,4.44-8.27,2.44-11.81,3.16-9.55,1.95-17.55,7.48-24.73,13.76,6.02-26.9-23.47-25.93-40.55-18.04-3.66,7.89,5.69,7.04,6.35,11.76.17,1.2-.62,7.86-.82,9.77-1.94,18.19-9.84,54.07-15.46,71.54-1.46,4.55-4.9,11.16-10.09,11.93-10.79,1.61-9.17-8.99-8.16-16.18,3.86-27.29,19.11-75.64,11.88-101.43-9.32-33.26-50.24-23.32-62.97,1.33-7.77,15.06-10.27,37.86,13.33,35.32,24.18-2.6,17.14-40.09-2.02-18l-2.44-1.48c5.07-21.84,23.99-12.05,24.98,5.94.53,9.57-3.16,20.93-4.04,30.53-4.09-1.38-4.69-4.2-9.58-4.9-14.1-2.04-30.28,7.14-39.38,17.44-16.66,18.85-30.93,66.92,2.94,75,14.87,3.55,27.75-3.83,37.67-14.46,11.24,9.79,20.56,11.49,34.35,5.42,3.71-1.64,12.62-9.77,9.02-1.49l34.85-4.14c3.58-20.82,6.04-43.23,13.4-63.1,2.2-5.95,5.09-13.86,11.05-16.95,6.92-3.6,13.13-1.76,13.61,6.59-3.65,23.17-28.28,70.32-8.9,90.11,8.68,8.87,30.2,7.2,41.89,8.39l1.11-9.88c-12.05.3-13.58-10.84-13.03-20.54,1.32-23.58,11.77-51.45,13.91-75.08,1.13-12.52-1.15-17.77-10.61-25.09-.83-.64-1.83.02-1.26-2.29h-.02ZM680,631h-14.5c-2.6,0-11.25-3.57-14.17-4.83l-18.32-10.17c4.73,11.35-5.46,17.97-6.04,28.46-.36,6.43,1.82,13.24,1.18,19.89.51,1.62,1.91,1.75,3.38,1.74,1.18,0,7.96-9.24,9.95-11.12,9.91-9.31,24.09-14.2,37.44-16.06l1.08-7.92h0ZM886.99,733c-2.57-.28-1.59,0-2.02,1.46-2.66,9.05-3.48,19.54-6.05,28.96-3.97,14.57-10.25,32.26-22.94,41.29,7.32,60.93-28.6,116.04-79.06,146.72-48.37,29.4-105.91,36.14-160.93,24.09-4.83-1.06-9.39-2.97-13.94-4.07-1.01-.24-3.27-1.31-3.04.55,45.79,20.15,96.36,29.36,146.35,22.87,78.72-10.22,149.05-54.1,194.46-118.54,3.42-4.85,14.52-20.61,15.71-25.29.64-2.5,1.22-13.38-.47-14.61-26.95.45-46.58,17.93-57.92,41.22-3.98,8.18-4.58,21.08-16.57,19.32s-11.34-20.11-10.45-29.34c3.7-38.42,30.41-82.64,63.87-102.13-8.12.55-16.11.1-23.69-3.3-10.53-4.73-20.58-18.11-23.32-29.19h0ZM723,769.01c-10.98,2.19-22.27,2.49-33.48,1.97-2.62-.12-6.9-2.03-8.88-1.7-1,.17-9.22,5.73-11.96,6.9-8.87,3.77-17.68,5.18-27.23,3.07l-10.45,19.74c28,6,56.38,21.26,49.29,54.8-5.99,28.37-43.33,28.2-42.43-2.66-2.08-3.43-35.34,1.84-41.08,3.15-10.69,2.45-21.04,6.26-30.79,11.2,34.61,23.4,81.46,32.59,122.21,22.22,2.93-.75,15.51-4.53,17.21-5.79,3.48-2.59,1.92-15.85,5.63-19.37,4.22-4.01,10.54-1.48,12.75-2.76.39-.22,3.09-5.3,5.27-7.22,1.57-1.38,8.42-6.03,10.21-6.79,2.43-1.03,10.9-1.1,6.42-4.03-4.17-2.73-9.02-3.8-13.63-7.34-20.24-15.58-21.18-44.41-9.08-65.41l.02.02ZM512.03,798.99l41.47-4.99,2.5-2.48c-1.16-1.7-2.6-1.63-4.45-1.55-10.42.44-26.47,2.49-36.95,4.14-1.24.19-2.35.82-3.6.91l1.04,3.97h0ZM484.99,799.01c-5.68.96-12.53-4.82-17.5-3.08-1.62.57-11.53,6.05-12.03,7.07-1.49,3.03,1.26,6.01,1.55,9l27.41-7.89.57-5.11h0ZM363,880h21.5c15.19,0,48.92,21.45,59.01,32.99,11.87,13.58,15.65,27.69,24.28,41.72.66,1.07,1.14,2.53,2.7,2.3,2.61-14.89,5.24-30.32,12.02-44,13.86-27.96,55.75-55.57,84.24-66.76,20.63-8.1,64.56-19.55,84.28-7.78,14.91,8.89-1.19,14.66,2.06,19.44,19.4,4.98,21.15-14.08,11.32-26.82-20.32-26.35-90.45-24.19-120.91-21.07-23.85,2.44-44.51,9.28-67.04,12.97-3.14.51,1.2-2.46-1.93-1.96-16.96,2.71-49.88,17.99-65.56,26.46-15.94,8.61-33.33,19.72-45.98,32.52h.01ZM1051.73,813.24c-23.14,3.89-16.14,36.29,5.48,34.55s18.66-38.6-5.48-34.55ZM828,817h-14.5c-6.31,7.94-13.51,15.86-22.81,20.19-10.92,5.09-20.84,3.81-3.33,14.74,5.8-3.44,20.92-23.69,26.91-22.77,2.93.45,5.83,4.04,5.54,7.09-.82,8.58-18.73,19.13-23.58,26.23l9.27,14.51c1.72.43,5.04-6.29,6.01-7.98,8.94-15.54,13.79-34.41,16.48-52.02h.01ZM813.99,834c-.74-.84-5.1,2.74-6.01,3.48-3.99,3.26-15.69,14.58-18.54,18.46-1,1.36-1.86,2.09-1.44,4.05,1.25,1.59,21.99-18.7,24.56-19.93l1.43-6.06ZM764.65,843.37c-3.24-2.04-10.25-1.62-13.04.56-.96.75-.25,2.29-1.25,3.14-1.59,1.36-7.01,2.72-9.51,4.29-4.91,3.09-9.29,8.44-10.94,14.05,6.62,3.07,7.24,9.08,8.08,15.59h-2.99c.22-10.43-7.45-14.12-16.91-12.89-3.08,14.31-11.16,20.44-2.63,34.93,2.8,4.76,15.62,14.69,20.62,17.38.91.49,5.63,1.86,5.91,1.58-3.13-8.73,8.33-16.69,13-23.5-4.04-1.95-9.02-2.11-11.98-6l2.48-2.48c5.95,7.02,16.6,9.51,22.5.99-6.64,2.68-11-2.08-6-7.54,3.65-1.86,7.29,3,10,5.04.68,1.8-1.67,1.2-1.96,2.19-.37,1.26.32,3.05-.48,4.35-.62,1-8.02,2.61-10.59,4.41-3.01,2.11-12.7,13.54-12.83,16.99-.05,1.27,1.09,8.4,1.86,9.07,9.35,2.63,26.48,4.29,34.53-2.5,3.74-3.15,1.69-7.91,5.38-11.65l-1.4-2.08c-3.54,1.96-2.09-1.23-4.04-4.24-2.61-4.04-8.09-5.7-10.46-10.03,4.82-1.11,11.86,8.28,14.65,8.82.75.15,5.99-2.33,6.74-2.94,3.05-2.5,5.91-16.11,5.66-20.42-.17-2.99-3.11-13.05-5-15.02-4.22-4.38-12.92-.12-15.56-6.45-2.07-.56-12.16,16.51-14.48,19-3.96-6.24,5.25-15.35,10.24-18.25,3.51-2.04,12.68-2.66,6.43-6.93-4.88-3.34-10.78-6.15-16.03-9.45h0ZM710.91,909.09c-11.92,1.44-23.33,5.23-35.37,5.95-45.01,2.69-92.9-10.23-127.19-39.89-3.07-.59-34.71,23.21-35.28,26.49,55.76,66.63,161.82,79.88,234.44,33.37l-3.48-5.53c-.59-.35-9.26-1.5-10.29-1.32-6.56,1.13-17.83,21.8-27.33,14.92-5.17-3.75,9.6-17.77,13.58-19.09l-.02-1.45c-3.84-4.03-8.58-7.35-9.06-13.44h0ZM727.91,922.15l-1.39-.14c-1.93,2.76-17.57,15.38-15.5,17.99l19.99-16.5-2.85.29-.24-1.64h-.01Z"/>
  <path d="M1021.99,612.01c-12.93-1.87-26.21-1.48-38.75,2.23l-21.35,96.15c-8.66,16.82-29.02,21.22-31.24-2.28-3.14-33.14,16.87-41.44,29.53-67.43,10.48-21.52,16.88-46.56,22.84-69.67l16.99,5.52c-8.52,14.37.05,18.79,13,21.97s8.07.5,16.75-3.22c7.29-3.13,12.31,3.69,16.81,8.69-7.13,26.37-10.75,53.71-18.07,80.05-2.22,8-4.22,18.06-9.53,24.47-7.96,9.59-19.48,9.66-19.03-4.98.31-10.31,5.42-27.45,8.14-37.91,1.75-6.75,16.2-51.35,13.91-53.57v-.02Z"/>
  <path d="M1076.1,627.1c10.07.1,18.91-2.61,25.34,6.97,12.01,17.88-8.94,68.94-27.37,78.5-6.7,3.47-13.61,1.77-18.04-4l20.08-81.47h0Z"/>
  <path d="M938.01,647c-.32-22.62,4.31-46.43,10.27-68.22,2.16-7.88,7.91-29.43,14.21-33.78,4.9-3.39,6.63-2.05,7.41,3.6,2.54,18.39-9.29,52.72-16.74,70.07-4.1,9.55-9.12,19.91-15.16,28.33h0Z"/>
  <path d="M991,919.01c6.79.87,12.99,3.6,19.79,4.7,37.47,6.08,81.68-28.77,79.17-68.08-.39-6.17-11.56-10.65-1.7-14.87,11.32-4.85,12.18,14.01,11.72,20.74-3.07,45.28-61.4,87.24-103.65,62.68-.72-.42-6.9-3.79-5.33-5.16h0Z"/>
  <path d="M348,956l-3.03.55c-4.71-10.18-15.32-19.05-26.97-14.04-21.42,9.2-1.31,44.66,17.51,31.51,5.12-3.58,6.53-10.57,11.99-12.01-2.24,29.22-43,26.12-42.57-3.49s40.13-30.23,43.08-2.51h-.01Z"/>
  <path d="M1017,917.99v-2.98c4.37-1.41,8.97-.55,13.25-1.27,18.68-3.15,38.79-17.66,43.32-36.68.38-1.59.23-5.53.58-5.93.44-.5,3.03.2,3.73-1.75.46-1.28.36-5.32-.07-6.7-.65-2.1-2.3-1.84-3.18-2.6-3.32-2.86,5.58-8.8,7.92-1.14,4.67,15.31-8.71,36.5-20.02,46.08-12.68,10.73-29.17,15.15-45.53,12.97h0Z"/>
  <path d="M1124,490c-4.53.81-3.47-4.57-7.03-7.47-6.45-5.24-16.92-3.65-18.73,5.19-2.62,12.78,11.69,21.19,20.23,10.22,1.99-2.55.43-4.95,5.53-3.95-1.09,20.05-30.06,15.84-30.07-3.5-.02-20.82,30.42-21.09,30.08-.5h-.01Z"/>
  <path d="M1040.01,475c-.33-2.25,2.49-3.6,4.09-4.4,15.07-7.53,43.41,1.46,39.76,21.76-7.68,7.44-12.05-5.58-16.35-10.38-6.43-7.16-18.72-11.71-27.5-6.99h0ZM1075.01,490c7.63-2.06,2.91-8.01-1-11.5-5.17-4.62-12.01-7.06-19-6.48l15.51,6.98c2.69,3.04,4.72,6.82,4.49,11.01h0Z"/>
  <path d="M999.7,553.21c6.63-1.97,15.59,3.57,14.11,11.04-3.45,17.38-25.66,2.04-16.83-8.76.73-.89,1.59-1.94,2.72-2.28h0Z"/>
  <path d="M288.74,898.25c17.78-4.57,20.56,21.78,2.73,20.82-12.34-.67-11.96-18.44-2.73-20.82ZM297.76,913.76c3.26-3.27,1.15-10.76-3.71-12.32-9.42-3.02-13.08,12.15-3.47,13.52,1.86.26,5.87.12,7.18-1.2Z"/>
  <path d="M1037.87,549.07c-5.97-.08-5.11-8.55.85-9.87,10.5-2.32,13.92,17.32,1.26,17.35-2.67-1.8-1.82-4.73-2.11-7.48Z"/>
  <path d="M1148.28,515.28c8.01-8.01,20.75,5.61,11.68,13.18-8.25,6.89-19.37-5.49-11.68-13.18ZM1152.71,517.18c-3.75,1.13-3.75,7.52,0,8.64,8.14,2.44,8.14-11.09,0-8.64Z"/>
  <path d="M920,443.01c-4.05,8.48-7.62,17.35-7,27l-5.5-2c-1.54-3.14.44-9.98,1.73-13.28.84-2.16,7.92-14.42,10.77-11.72Z"/>
  <path d="M383,953.99c-3.27.22-6.14-.98-9.44-1.04-4.29-.07-14.2,3.02-13.61-2.44.44-4.09,7.64-3.78,10.47-3.43,1.31.17,15.36,4.54,12.58,6.91Z"/>
  <path d="M1023,594.99c-.63-.53,7.6-11.64,8.99-6.48.93,3.44-6.46,5.86-8.99,6.48Z"/>
  <path d="M1029.87,557.88l-8.87,3.11c-.8-5.31,5.71-4.33,8.5-6.99l.37,3.87h0Z"/>
  <path class="st0" d="M361.99,694c3.34-22,19.05-40.45,31.01-58.55l16.53,1.67c4.16-6.96,13.93-19.55,5.41-26.57-8.3-6.84-26.89-.15-35.26,4.65-27.41,15.73-52.88,56.68-59.83,87.17-6.21,27.23-7.1,84.93,27.7,93.57,27.62,6.86,46.96-9.89,44.43-37.94-5.09,5.82-4.83,11.35-13.18,14.31-28.49,10.11-37.42-41.99-2.3-38.31,24.64,2.58,27.85,34.99,24.22,54.23-7.79,41.25-53.19,55.02-89.72,44.27-108.31-31.89-60.49-229.33,19.95-271.04,36.36-18.85,95.81-17.43,103.94,32.15,7.08,43.19-18.45,112.3-72.9,100.4h0Z"/>
  <path class="st0" d="M768,549.01c-4.83,17.31-10.45,34.41-15.98,51.51-10.83,33.47-28.79,73.61-34.7,107.3-.96,5.46-5.41,25.15,2.24,26.21,5.02.26,8.29-4.52,12.48-6.73-2.84-20.78,3.86-43.37,9.25-63.51.91-3.38,5.22-20.2,6.75-21.25,10.38-2.6,21.43-3.96,31.95-2.52.04,2.45.14,4.92-.11,7.37-2,19.28-14.61,53.19-11.82,71.06,1.45,9.29,14.45,8.17,19.49,1.61,4.2-5.46,8.02-33.36,9.29-41.71,1.98-13.07,3-26.25,4.64-39.36,1.52-2.62,30.53-6.17,35.52-6.98-3.03,31.91-11.88,63.04-16.83,94.67-4.9,31.27-1.97,80.77-37.19,94.81-18.39,7.33-45.7,2.29-52.45-18.51-3.42-10.55.13-24.98,9.54-31.41,25.71-17.57,39.6,27.8,4.93,23.44.77,11.94,20.5,18.28,29.02,10.51,13.29-12.12,10.59-46.72,11.98-63.51-5.56,2.64-10.83,6.11-16.95,7.54-8.41,1.97-16.55,2.39-24.37-1.72-4.53-2.39-6.26-5.83-10.02-8.69-4.48,3.12-8.42,7.19-13.45,9.59-12.27,5.86-24.51,4.42-32.71-6.7-13.57,17.64-44.08,27.07-58.94,5.92-14.1-20.08-1.5-57.7,12.92-74.95,10.48-12.53,30.7-24.99,47.5-20.98l9.99-48.54-.47-2.46c-3.32,1.84-6.24,4.68-9.6,6.4-2.95,1.51-12.38,6.17-14.95,7.04-8,2.69-21.51-8.09-29.95-9.45l2.89-3.69c-.5-7.85-10.34.61-13.87-6.8,12.4-6.48,26.41-9.92,38.29-17.7,7.38-4.84,13.78-11.79,20.21-17.8,2.07-.82,1.64,2.53,2.78,3.72,2.68,2.79,6.92,5.59,8.79,9.69.98,2.15.28,5.05,1.91,5.58l3.07-14.45-3.94-2.17c-.09-2.19-.46-4.81-.16-6.93.12-.87.11-1.63.53-2.47,1.44-2.88,20.9-4.79,24.97-5.03,5.09-.29,35.4-.3,37.55,2.05h-.02ZM715.98,653.99c8.81-17.71,17.3-36.84,22.52-55.99,1.47-5.4,5.07-17.36,3.34-22.33-2.46-7.08-9.01,3.92-10.36,6.32-11.39,20.37-15.1,48.62-17.49,71.51l1.99.5h0ZM704,587c-12.15-2.19-10.27,5.74-3.43,10.91,2.07.59,1.27-.84,1.68-2.11.44-1.36,2.39-8.16,1.75-8.8ZM691,668.01c-22.38-2.64-31.73,24.42-32.98,42.51-.82,11.88.87,31.56,17.97,24.97,9.74-3.76,4.82-6.88,4.98-13.93.14-5.94,1.32-14.83,2.17-20.91,1.57-11.19,4.81-21.82,7.86-32.63h0Z"/>
  <path class="st0" d="M609.01,662c-.58,2.3.43,1.64,1.26,2.29,9.46,7.32,11.75,12.57,10.61,25.09-2.14,23.63-12.59,51.5-13.91,75.08-.54,9.71.99,20.85,13.03,20.54l-1.11,9.88c-11.69-1.19-33.2.47-41.89-8.39-19.38-19.79,5.25-66.94,8.9-90.11-.48-8.34-6.68-10.19-13.61-6.59-5.96,3.1-8.84,11-11.05,16.95-7.36,19.87-9.82,42.28-13.4,63.1l-34.85,4.14c3.61-8.27-5.3-.14-9.02,1.49-13.79,6.07-23.11,4.38-34.35-5.42-9.92,10.63-22.8,18.01-37.67,14.46-33.86-8.08-19.6-56.15-2.94-75,9.1-10.3,25.28-19.48,39.38-17.44,4.9.71,5.49,3.52,9.58,4.9.88-9.6,4.57-20.96,4.04-30.53-1-18-19.91-27.79-24.98-5.94l2.44,1.48c19.15-22.09,26.19,15.4,2.02,18-23.59,2.54-21.1-20.26-13.33-35.32,12.73-24.66,53.65-34.6,62.97-1.33,7.22,25.79-8.03,74.14-11.88,101.43-1.02,7.19-2.63,17.79,8.16,16.18,5.19-.77,8.63-7.39,10.09-11.93,5.63-17.47,13.52-53.34,15.46-71.54.2-1.91.99-8.57.82-9.77-.66-4.72-10-3.87-6.35-11.76,17.08-7.89,46.57-8.86,40.55,18.04,7.18-6.28,15.17-11.81,24.73-13.76,3.55-.72,10.34,1.28,11.81-3.16,1.74-5.25,1.6-17.43-3.01-21.11-1.77-1.42-7.15-1.8-7.52-3.52l1.97-8.43-4.83,5.66-1.15,2.79c17.36,8.51,7.96,23.98-7,28.12-7.1,1.96-11.26-6.65-16.05-10.03-1.91-1.35-4.47-1.19-5.95-3.09-.23-.99,2.75-5.64,3.75-6.47,3.47-2.87,14.49-1.24,8.29-9.55-1.15-1.53-10.04-6.2-10.03-2.94,1.25,1.48,2.86,2.51,4.46,3.56,1.82,1.2,4.24.12,3.53,2.93-6.7-.02-11.33,6.18-13.15,11.85-8.91-.52-16.98-.86-25.86.68-1.91-1.16.83-5.63,1.01-8.02,1.15-15.1-3.3-35.53,19.49-33.49,8.24.74,24.02,7.23,30.07,6.88,2.08-.12,7.45-4.65,10.07-5.77,10.26-4.38,22.74-3.49,29.2,6.55,5.89,9.16-.86,16.13-1.83,24.82-1.28,11.44,7.51,27.48-10.99,23.51h.02ZM592.72,646.72c1.62-1.6,3.87-8.82.7-9.6s-15.45,4.13-15.47,8.39c-.04,5.1,11.64,4.3,14.77,1.21h0ZM472.86,710.14c-24.74-7.42-31.67,24.12-29.85,42.34,1.72,17.13,15.86,16.58,23.53,3.55,1.48-15.38,6.26-30.46,6.32-45.9h0Z"/>
  <path class="st0" d="M886.99,733c2.73,11.09,12.78,24.47,23.32,29.19,7.58,3.4,15.57,3.85,23.69,3.3-33.47,19.49-60.18,63.71-63.87,102.13-.89,9.24-2.05,27.52,10.45,29.34s12.59-11.14,16.57-19.32c11.34-23.3,30.97-40.78,57.92-41.22,1.69,1.23,1.1,12.11.47,14.61-1.19,4.68-12.29,20.43-15.71,25.29-45.41,64.45-115.74,108.32-194.46,118.54-49.99,6.49-100.56-2.72-146.35-22.87-.23-1.86,2.04-.79,3.04-.55,4.55,1.1,9.11,3.01,13.94,4.07,55.02,12.05,112.57,5.31,160.93-24.09,50.46-30.68,86.38-85.79,79.06-146.72,12.69-9.03,18.97-26.71,22.94-41.29,2.57-9.42,3.39-19.92,6.05-28.96.43-1.46-.55-1.73,2.02-1.46h0Z"/>
  <path class="st0" d="M884.99,499.98c-23.7,12.49-31.77,40.54-40.49,64-6.86-9.56-12.2-20.2-19.52-29.46-39.41-49.87-102.97-71.12-165.34-62.38-78.94,11.07-143.69,66.07-169.74,140.76-10.23-.17-20.67,1.49-29.89,6.1,28.73-82.11,103.74-149.51,187.77-171.72,74.91-19.79,154.23-9.23,217.53,35.9,5.55,3.95,13.97,9.75,18.62,14.38.83.82,1.43.89,1.06,2.42h0Z"/>
  <path class="st0" d="M363,880c12.65-12.8,30.03-23.91,45.98-32.52,15.68-8.46,48.6-23.75,65.56-26.46,3.13-.5-1.2,2.48,1.93,1.96,22.53-3.7,43.19-10.53,67.04-12.97,30.46-3.12,100.59-5.28,120.91,21.07,9.82,12.74,8.07,31.8-11.32,26.82-3.25-4.78,12.85-10.54-2.06-19.44-19.72-11.76-63.65-.31-84.28,7.78-28.49,11.18-70.39,38.8-84.24,66.76-6.78,13.68-9.41,29.11-12.02,44-1.56.22-2.04-1.23-2.7-2.3-8.63-14.02-12.41-28.13-24.28-41.72-10.09-11.54-43.82-32.99-59.01-32.99h-21.51Z"/>
  <path class="st0" d="M883.99,599.01l26-2-2.03,18.96-24.97,2.03-19.46,142.04c-4.84,22.94-12.91,38.51-39.54,36.96,5.32-28.55,7-57.61,11.14-86.35,4.27-29.61,10.92-59.03,14.86-88.64l-19,.99,2.88-15.41c3.53-1.41,17.13-2.59,18.63-5.57,5.08-23.74,8.76-49.99,18.81-72.19,7.45-16.47,24.25-31.97,42.18-18.81,26,19.08,10.67,70.19-24.08,61.06l-.44-1.55c.23-12.56,13.67-16.25,19.22-26.81,3.45-6.57,1.42-15.03-7.25-12.25-7.15,2.29-10.2,18.78-11.65,25.34-1.17,5.26-7.08,40.43-5.3,42.21h0Z"/>
  <path class="st0" d="M710.91,909.09c.48,6.09,5.23,9.41,9.06,13.44l.02,1.45c-3.98,1.32-18.76,15.34-13.58,19.09,9.5,6.88,20.77-13.79,27.33-14.92,1.03-.18,9.69.97,10.29,1.32l3.48,5.53c-72.62,46.51-178.68,33.27-234.44-33.37.57-3.28,32.21-27.08,35.28-26.49,34.28,29.67,82.18,42.59,127.19,39.89,12.05-.72,23.46-4.51,35.37-5.95h0Z"/>
  <path class="st0" d="M784.99,511.01c.25,1.78-2.22.96-3.25.76-19.49-3.78-33.46-7.76-54.23-6.76-49.07,2.37-123.77,31.96-138,84-.96,3.53-1.31,11.57-2.95,13.05-8.26,7.45-36.36-10.36-52.06.94-9.36,6.74-14.42,20.78-13.51,31.99l-9.86-10.7c8.29-56.23,54.33-101.27,104.9-122.76,54.89-23.33,117.37-21.05,168.96,9.48h0Z"/>
  <path class="st0" d="M723,769.01c-12.1,20.99-11.15,49.83,9.08,65.41,4.6,3.54,9.45,4.61,13.63,7.34,4.48,2.93-3.99,2.99-6.42,4.03-1.79.76-8.64,5.4-10.21,6.79-2.18,1.92-4.89,6.99-5.27,7.22-2.21,1.28-8.53-1.25-12.75,2.76-3.71,3.52-2.15,16.78-5.63,19.37-1.7,1.26-14.28,5.05-17.21,5.79-40.75,10.37-87.6,1.18-122.21-22.22,9.75-4.95,20.1-8.76,30.79-11.2,5.74-1.31,39-6.59,41.08-3.15-.9,30.86,36.44,31.03,42.43,2.66,7.09-33.54-21.29-48.81-49.29-54.8l10.45-19.74c9.56,2.11,18.36.7,27.23-3.07,2.74-1.17,10.96-6.73,11.96-6.9,1.98-.33,6.26,1.58,8.88,1.7,11.22.52,22.5.22,33.48-1.97l-.02-.02Z"/>
  <path class="st0" d="M830,560.99c-8.39.9-13.37,8.29-17.97,14.55l-1.46.43c-9.09-9.83-21.17-14.94-34.56-11.98,2.08-7.68,8.93-19.65-1.71-23.78-3.59-1.39-12.52-2.02-16.75-2.25-11.72-.64-47.6-.97-56.89,4.19-10.36,5.74-19.78,16.87-29.17,23.83-7.74,5.74-17.54,9.83-26.5,13.5s-26.01,4.33-22.99,17.51c-7.85-1.61-15.89.89-24,0,2.94-20.68,20.56-37.98,37.09-49.4,42.72-29.52,103.42-36.32,152.68-20.86,19.71,6.19,34.85,13.6,42.23,34.26Z"/>
  <path class="st0" d="M764.65,843.37c5.25,3.3,11.15,6.11,16.03,9.45,6.25,4.27-2.92,4.89-6.43,6.93-4.99,2.9-14.2,12-10.24,18.25,2.32-2.49,12.41-19.56,14.48-19,2.64,6.33,11.33,2.07,15.56,6.45,1.9,1.97,4.83,12.03,5,15.02.25,4.31-2.62,17.92-5.66,20.42-.75.61-5.99,3.09-6.74,2.94-2.79-.54-9.83-9.93-14.65-8.82,2.37,4.33,7.85,5.98,10.46,10.03,1.94,3.02.5,6.21,4.04,4.24l1.4,2.08c-3.69,3.75-1.63,8.5-5.38,11.65-8.06,6.78-25.18,5.13-34.53,2.5-.77-.67-1.9-7.8-1.86-9.07.13-3.45,9.81-14.88,12.83-16.99,2.58-1.8,9.98-3.41,10.59-4.41.8-1.29.11-3.09.48-4.35.29-.99,2.64-.39,1.96-2.19-2.7-2.05-6.34-6.9-10-5.04-5,5.46-.63,10.21,6,7.54-5.9,8.52-16.55,6.03-22.5-.99l-2.48,2.48c2.96,3.89,7.94,4.05,11.98,6-4.67,6.81-16.13,14.77-13,23.5-.28.28-5-1.09-5.91-1.58-4.99-2.69-17.81-12.62-20.62-17.38-8.53-14.49-.45-20.62,2.63-34.93,9.46-1.23,17.12,2.46,16.91,12.9h2.99c-.84-6.52-1.46-12.53-8.08-15.6,1.65-5.61,6.02-10.96,10.94-14.05,2.5-1.57,7.92-2.93,9.51-4.29,1-.85.29-2.39,1.25-3.14,2.79-2.17,9.8-2.59,13.04-.56h0ZM752.99,856c-4.9,3.38-.32,9.73,2.51,12.98l9.43-15.34-3.92-3.63c1.18,5.19-4.8,9.16-6.51,13.99l-1.51-7.99h0ZM753,873.01c-4.78-.94-8.5-4.59-12.52-7-1.24-.74-2.12-1.29-2.47.5-.48,2.46,12.39,9.52,13.5,9.46.64-.04,2.04-2.23,1.49-2.96ZM749.99,880c-2.68.65-4.81,1.52-7.53.32l-1.45,2.67,8.99,1v-3.99h0ZM770.99,900.01l-6.52,7.98-2.99-3-3.49,3c8.59,3.85,13.55,2.07,12.99-7.98h.01Z"/>
  <path class="st0" d="M957.76,437.26c20.94-2.87,39.22,9.71,42.98,30.5,1.3,7.17,1.18,21.24-3.26,27.22-.54.73-10.51,8.69-11.2,8.87-2.19.6-12.57-2.72-16.73-2.9-2.25-.09-4.71-.11-6.94.15-11.12,1.25-10.24,5.92-21.08-3.13-21.44-17.89-13.33-56.66,16.24-60.72h0ZM958.76,462.76c3.18-3.18,1.03-10.35-5.04-8.58-8.2,2.39-1.15,14.77,5.04,8.58ZM983,462.99l-5.51-2.01c-1.39,4.53-1.09,9.55,4.8,7.83,4.64-1.36,5.51-9.44-.28-9.8l.99,3.99h0Z"/>
  <path class="st0" d="M839.78,578.2c.94,1.63-.66,16.4-2.29,18.79l-3.39-17.41-4.1-.58,2.87,18.42c-7.37,3.81-12.4,5.77-14.22,14.72-.85,4.19.32,8.67-2.15,11.85-1.21-3.31,1.1-9.32-4.06-10.02-7.12-.97-6.93,8.43-2.44,12.02-7.58.79-19,3.66-21.01,12-2.05-.99-1.61-4.07-3.41-6.07-5.09-5.66-23.31-2.04-30.57-1.93,3.77-7.6,15.06-52.39,19.04-55.45,5.66-4.34,21.53-1.31,25.96,4.94,2.89,4.08,2.08,10.35,9.52,10.59,5.82.19,16.3-12.07,21.45-15.61l8.8,3.73h0ZM775,587.99l4.33-.16c3.97-2.54.62-5.86-3.23-4.73l-1.1,4.89h0ZM795.01,593c13.36,11.85,11.53-12.79.04-5.45-10.45,6.67-.48,16.1-.04,5.45ZM771.25,592.25c-5.21,5.27,5.06,12.03,8.27,6.76,3.08-5.06-4.76-10.3-8.27-6.76ZM815.9,603.9c1.49-.89.22-6.47-2.37-5.89-4.03.91-2.14,8.56,2.37,5.89ZM793.74,603.15c-7.75,1.52-5.22,11.88,1.69,10.89,6.97-1,5.43-12.28-1.69-10.89ZM768.48,611.27c-3.72.3-5.58,9.08,1.88,6.6,3.48-1.15,1.24-6.85-1.88-6.6ZM793,623c1.09-6.02-2.56-7.64-7.58-5.05l.73,4.9,6.85.15h0Z"/>
  <path class="st0" d="M680,631l-1.08,7.92c-13.35,1.86-27.53,6.75-37.44,16.06-2,1.88-8.78,11.11-9.95,11.12-1.47,0-2.87-.12-3.38-1.74.65-6.65-1.53-13.46-1.18-19.89.58-10.49,10.77-17.1,6.04-28.46l18.32,10.17c2.92,1.26,11.58,4.83,14.17,4.83h14.5Z"/>
  <path class="st0" d="M828,817c-2.69,17.61-7.54,36.49-16.48,52.02-.97,1.68-4.29,8.4-6.01,7.98l-9.27-14.51c4.85-7.1,22.76-17.65,23.58-26.23.29-3.05-2.62-6.64-5.54-7.09-5.99-.92-21.11,19.33-26.91,22.77-17.52-10.92-7.6-9.65,3.33-14.74,9.3-4.33,16.5-12.25,22.81-20.19h14.5-.01Z"/>
  <path class="st0" d="M1051.73,813.24c24.13-4.05,27.72,32.76,5.48,34.55s-28.62-30.66-5.48-34.55Z"/>
  <path class="st0" d="M484.99,799.01l-.57,5.11-27.41,7.89c-.29-2.99-3.04-5.97-1.55-9,.5-1.02,10.41-6.51,12.03-7.07,4.97-1.74,11.82,4.04,17.5,3.08h0Z"/>
  <path class="st0" d="M512.03,798.99l-1.04-3.97c1.25-.09,2.36-.72,3.6-.91,10.49-1.65,26.53-3.69,36.95-4.14,1.84-.08,3.29-.15,4.45,1.55l-2.5,2.48-41.47,4.99h.01Z"/>
  <path class="st0" d="M813.99,834l-1.43,6.06c-2.57,1.23-23.3,21.52-24.56,19.93-.42-1.96.45-2.69,1.44-4.05,2.84-3.88,14.54-15.21,18.54-18.46.91-.74,5.27-4.32,6.01-3.48Z"/>
  <path class="st0" d="M1007,517.99l-8.86.87c-1.95-6.24-5.86-12.17-3.12-18.86l10.84,14.65,1.15,3.34h-.01Z"/>
  <path class="st0" d="M727.91,922.15l.24,1.64,2.85-.29-19.99,16.5c-2.07-2.61,13.57-15.23,15.5-17.99l1.39.14h.01Z"/>
  <path class="st0" d="M1075.01,490c.22-4.19-1.8-7.97-4.49-11.01l-15.51-6.98c7-.58,13.84,1.86,19,6.48,3.91,3.49,8.63,9.45,1,11.5h0Z"/>
  <path class="st0" d="M297.76,913.76c-1.32,1.32-5.33,1.46-7.18,1.2-9.61-1.37-5.95-16.55,3.47-13.52,4.86,1.56,6.98,9.06,3.71,12.32Z"/>
  <path class="st0" d="M1152.71,517.18c8.14-2.44,8.14,11.09,0,8.64-3.75-1.13-3.75-7.52,0-8.64Z"/>
  <path d="M691,668.01c-3.06,10.81-6.29,21.44-7.86,32.63-.86,6.08-2.04,14.97-2.17,20.91-.16,7.05,4.76,10.17-4.98,13.93-17.1,6.6-18.79-13.09-17.97-24.97,1.25-18.09,10.61-45.14,32.98-42.51h0Z"/>
  <path d="M715.98,653.99l-1.99-.5c2.39-22.9,6.1-51.14,17.49-71.51,1.34-2.4,7.9-13.4,10.36-6.32,1.73,4.97-1.87,16.94-3.34,22.33-5.22,19.15-13.71,38.29-22.52,55.99h0Z"/>
  <path d="M704,587c.64.64-1.31,7.44-1.75,8.8-.41,1.28.39,2.71-1.68,2.11-6.84-5.17-8.73-13.1,3.43-10.91Z"/>
  <path d="M472.86,710.14c-.06,15.44-4.84,30.52-6.32,45.9-7.67,13.03-21.81,13.58-23.53-3.55-1.83-18.22,5.1-49.76,29.85-42.34h0Z"/>
  <path d="M592.72,646.72c-3.13,3.1-14.81,3.89-14.77-1.21.03-4.26,12.38-9.14,15.47-8.39s.92,7.99-.7,9.6h0Z"/>
  <path d="M752.99,856l1.51,7.99c1.71-4.83,7.69-8.8,6.51-13.99l3.92,3.63-9.43,15.34c-2.83-3.25-7.41-9.6-2.51-12.98h0Z"/>
  <path d="M753,873.01c.54.73-.85,2.93-1.49,2.96-1.11.06-13.98-7.01-13.5-9.46.35-1.79,1.23-1.24,2.47-.5,4.02,2.41,7.74,6.06,12.52,7Z"/>
  <path d="M770.99,900.01c.56,10.05-4.4,11.83-12.99,7.98l3.49-3,2.99,3,6.52-7.98h-.01Z"/>
  <path d="M749.99,880v3.99l-8.99-1,1.45-2.67c2.72,1.2,4.86.33,7.53-.32h0Z"/>
  <path d="M958.76,462.76c-6.19,6.19-13.23-6.19-5.04-8.58,6.07-1.77,8.22,5.4,5.04,8.58Z"/>
  <path d="M983,462.99l-.99-3.99c5.8.36,4.93,8.44.28,9.8-5.89,1.72-6.19-3.3-4.8-7.83l5.51,2.01h0Z"/>
  <path d="M795.01,593c-.45,10.65-10.41,1.23.04-5.45,11.49-7.34,13.33,17.29-.04,5.45Z"/>
  <path d="M793.74,603.15c7.12-1.39,8.66,9.88,1.69,10.89-6.91,1-9.44-9.37-1.69-10.89Z"/>
  <path d="M771.25,592.25c3.5-3.54,11.34,1.7,8.27,6.76-3.21,5.27-13.47-1.5-8.27-6.76Z"/>
  <path d="M793,623l-6.85-.15-.73-4.9c5.02-2.59,8.67-.97,7.58,5.05h0Z"/>
  <path d="M768.48,611.27c3.12-.25,5.35,5.45,1.88,6.6-7.46,2.47-5.6-6.31-1.88-6.6Z"/>
  <path d="M775,587.99l1.1-4.89c3.86-1.13,7.2,2.19,3.23,4.73l-4.33.16h0Z"/>
  <path d="M815.9,603.9c-4.5,2.67-6.4-4.98-2.37-5.89,2.58-.58,3.86,5,2.37,5.89Z"/>
</svg>